<mxfile host="65bd71144e">
    <diagram id="ekgnhu82ao4ZkAPiSTXk" name="Page-1">
        <mxGraphModel dx="1765" dy="2074" grid="1" gridSize="10" guides="1" tooltips="1" connect="1" arrows="1" fold="1" page="1" pageScale="1" pageWidth="827" pageHeight="1169" math="0" shadow="0">
            <root>
                <mxCell id="0"/>
                <mxCell id="1" parent="0"/>
                <mxCell id="2" value="&lt;span style=&quot;background-color: rgb(0, 0, 0);&quot;&gt;Bob&lt;/span&gt;" style="shape=umlActor;verticalLabelPosition=bottom;verticalAlign=top;html=1;outlineConnect=0;" parent="1" vertex="1">
                    <mxGeometry x="50" y="70" width="30" height="60" as="geometry"/>
                </mxCell>
                <mxCell id="3" value="&lt;span style=&quot;background-color: rgb(0, 0, 0);&quot;&gt;Alice&lt;/span&gt;" style="shape=umlActor;verticalLabelPosition=bottom;verticalAlign=top;html=1;outlineConnect=0;" parent="1" vertex="1">
                    <mxGeometry x="100" y="350" width="30" height="60" as="geometry"/>
                </mxCell>
                <mxCell id="9" value="" style="endArrow=classic;html=1;" parent="1" source="2" target="8" edge="1">
                    <mxGeometry width="50" height="50" relative="1" as="geometry">
                        <mxPoint x="390" y="280" as="sourcePoint"/>
                        <mxPoint x="440" y="230" as="targetPoint"/>
                    </mxGeometry>
                </mxCell>
                <mxCell id="10" value="Smartcontract&#10;" style="swimlane;startSize=0;" parent="1" vertex="1">
                    <mxGeometry x="314" y="110" width="200" height="660" as="geometry"/>
                </mxCell>
                <mxCell id="8" value="Want 2 Eth&lt;br&gt;For 5000 USDC&lt;br&gt;" style="rhombus;whiteSpace=wrap;html=1;" parent="10" vertex="1">
                    <mxGeometry x="30" y="20" width="130" height="110" as="geometry"/>
                </mxCell>
                <mxCell id="16" value="Sell 1 ETH&lt;br&gt;For 2500 USDC" style="rhombus;whiteSpace=wrap;html=1;" parent="10" vertex="1">
                    <mxGeometry x="30" y="250" width="130" height="110" as="geometry"/>
                </mxCell>
                <mxCell id="19" value="Add to action state&amp;nbsp;&lt;br&gt;and found&amp;nbsp;&lt;br&gt;a match" style="rhombus;whiteSpace=wrap;html=1;" parent="10" vertex="1">
                    <mxGeometry x="20" y="390" width="150" height="140" as="geometry"/>
                </mxCell>
                <mxCell id="29" value="Add to action state" style="rhombus;whiteSpace=wrap;html=1;" vertex="1" parent="10">
                    <mxGeometry x="38" y="150" width="114" height="90" as="geometry"/>
                </mxCell>
                <mxCell id="30" value="Settle the state" style="rhombus;whiteSpace=wrap;html=1;" vertex="1" parent="10">
                    <mxGeometry x="52" y="540" width="95" height="100" as="geometry"/>
                </mxCell>
                <mxCell id="31" value="" style="endArrow=classic;html=1;exitX=0.5;exitY=1;exitDx=0;exitDy=0;entryX=0.5;entryY=0;entryDx=0;entryDy=0;" edge="1" parent="10" source="16" target="19">
                    <mxGeometry width="50" height="50" relative="1" as="geometry">
                        <mxPoint x="76" y="350" as="sourcePoint"/>
                        <mxPoint x="126" y="300" as="targetPoint"/>
                    </mxGeometry>
                </mxCell>
                <mxCell id="32" value="" style="endArrow=classic;html=1;exitX=0.5;exitY=1;exitDx=0;exitDy=0;entryX=0.5;entryY=0;entryDx=0;entryDy=0;" edge="1" parent="10" source="8" target="29">
                    <mxGeometry width="50" height="50" relative="1" as="geometry">
                        <mxPoint x="76" y="340" as="sourcePoint"/>
                        <mxPoint x="126" y="290" as="targetPoint"/>
                    </mxGeometry>
                </mxCell>
                <mxCell id="14" value="Lumina &lt;br&gt;Backend" style="shape=cylinder3;whiteSpace=wrap;html=1;boundedLbl=1;backgroundOutline=1;size=15;" parent="1" vertex="1">
                    <mxGeometry x="680" y="380" width="100" height="190" as="geometry"/>
                </mxCell>
                <mxCell id="17" value="" style="endArrow=classic;html=1;exitX=0.5;exitY=0.5;exitDx=0;exitDy=0;exitPerimeter=0;" parent="1" source="3" target="16" edge="1">
                    <mxGeometry width="50" height="50" relative="1" as="geometry">
                        <mxPoint x="390" y="250" as="sourcePoint"/>
                        <mxPoint x="440" y="200" as="targetPoint"/>
                    </mxGeometry>
                </mxCell>
                <mxCell id="20" value="" style="endArrow=classic;html=1;exitX=0.5;exitY=1;exitDx=0;exitDy=0;exitPerimeter=0;entryX=1;entryY=0.5;entryDx=0;entryDy=0;" parent="1" source="14" target="30" edge="1">
                    <mxGeometry width="50" height="50" relative="1" as="geometry">
                        <mxPoint x="720" y="690" as="sourcePoint"/>
                        <mxPoint x="474" y="690" as="targetPoint"/>
                    </mxGeometry>
                </mxCell>
                <mxCell id="23" value="Update the action state sometimes ?" style="edgeLabel;html=1;align=center;verticalAlign=middle;resizable=0;points=[];" parent="20" vertex="1" connectable="0">
                    <mxGeometry x="-0.1721" y="4" relative="1" as="geometry">
                        <mxPoint as="offset"/>
                    </mxGeometry>
                </mxCell>
                <mxCell id="21" value="&lt;span style=&quot;font-size: 12px; font-weight: 400; background-color: rgb(42, 37, 47);&quot;&gt;Supply 2500 USDC for Alice&lt;/span&gt;" style="endArrow=classic;html=1;fontStyle=1;exitX=0;exitY=0;exitDx=0;exitDy=0;" parent="1" source="19" target="3" edge="1">
                    <mxGeometry width="50" height="50" relative="1" as="geometry">
                        <mxPoint x="360" y="380" as="sourcePoint"/>
                        <mxPoint x="120" y="370" as="targetPoint"/>
                        <Array as="points">
                            <mxPoint x="120" y="520"/>
                        </Array>
                    </mxGeometry>
                </mxCell>
                <mxCell id="22" value="&lt;meta charset=&quot;utf-8&quot;&gt;&lt;span style=&quot;color: rgb(240, 240, 240); font-family: Helvetica; font-size: 12px; font-style: normal; font-variant-ligatures: normal; font-variant-caps: normal; font-weight: 400; letter-spacing: normal; orphans: 2; text-align: center; text-indent: 0px; text-transform: none; widows: 2; word-spacing: 0px; -webkit-text-stroke-width: 0px; background-color: rgb(42, 37, 47); text-decoration-thickness: initial; text-decoration-style: initial; text-decoration-color: initial; float: none; display: inline !important;&quot;&gt;Supply 1 Eth to Bob&lt;/span&gt;&lt;br style=&quot;border-color: rgb(0, 0, 0); color: rgb(240, 240, 240); font-family: Helvetica; font-size: 12px; font-style: normal; font-variant-ligatures: normal; font-variant-caps: normal; font-weight: 400; letter-spacing: normal; orphans: 2; text-align: center; text-indent: 0px; text-transform: none; widows: 2; word-spacing: 0px; -webkit-text-stroke-width: 0px; background-color: rgb(42, 37, 47); text-decoration-thickness: initial; text-decoration-style: initial; text-decoration-color: initial;&quot;&gt;" style="endArrow=classic;html=1;exitX=0;exitY=1;exitDx=0;exitDy=0;" parent="1" source="19" target="2" edge="1">
                    <mxGeometry x="0.8635" y="-18" width="50" height="50" relative="1" as="geometry">
                        <mxPoint x="400" y="460" as="sourcePoint"/>
                        <mxPoint x="30" y="170" as="targetPoint"/>
                        <Array as="points">
                            <mxPoint x="60" y="600"/>
                        </Array>
                        <mxPoint as="offset"/>
                    </mxGeometry>
                </mxCell>
                <mxCell id="26" value="Order onchain&lt;br&gt;Action state&lt;br&gt;or Batch" style="text;strokeColor=none;fillColor=none;html=1;fontSize=24;fontStyle=1;verticalAlign=middle;align=center;" parent="1" vertex="1">
                    <mxGeometry x="350" y="10" width="100" height="40" as="geometry"/>
                </mxCell>
            </root>
        </mxGraphModel>
    </diagram>
</mxfile>